<mxfile host="app.diagrams.net" modified="2023-04-02T14:51:52.824Z" agent="Mozilla/5.0 (Macintosh; Intel Mac OS X 10_15_7) AppleWebKit/605.1.15 (KHTML, like Gecko) Version/16.3 Safari/605.1.15" version="21.1.1" etag="DFKh1iOCzLS7_DNT6gIo" type="github">
  <diagram name="Page-1" id="5zQY7Irr0yFyxAa6_ilZ">
    <mxGraphModel>
      <root>
        <mxCell id="0" />
        <mxCell id="1" parent="0" />
      </root>
    </mxGraphModel>
  </diagram>
</mxfile>
